<svg width="39" height="52" viewBox="0 0 39 52" fill="none" xmlns="http://www.w3.org/2000/svg">
<g clip-path="url(#clip0_16_27)">
<path d="M16.7917 51.875C12.2778 51.875 8.44096 50.2951 5.28124 47.1354C2.12152 43.9757 0.541656 40.1389 0.541656 35.625V19.375L14.0833 32.9167L10.2917 36.776L5.95832 32.4427V35.625C5.95832 38.6042 7.01909 41.1545 9.14062 43.276C11.2621 45.3976 13.8125 46.4583 16.7917 46.4583C19.7708 46.4583 22.3212 45.3976 24.4427 43.276C26.5642 41.1545 27.625 38.6042 27.625 35.625V27.026C26 26.3941 24.691 25.3898 23.6979 24.013C22.7049 22.6363 22.2083 21.0903 22.2083 19.375C22.2083 17.6597 22.7049 16.1137 23.6979 14.737C24.691 13.3602 26 12.3559 27.625 11.724V0.416672H33.0417V11.724C34.6667 12.3559 35.9757 13.3602 36.9687 14.737C37.9618 16.1137 38.4583 17.6597 38.4583 19.375C38.4583 21.0903 37.9618 22.6476 36.9687 24.0469C35.9757 25.4462 34.6667 26.4392 33.0417 27.026V35.625C33.0417 40.1389 31.4618 43.9757 28.3021 47.1354C25.1424 50.2951 21.3055 51.875 16.7917 51.875ZM30.3333 22.0833C31.1007 22.0833 31.7439 21.8238 32.263 21.3047C32.7821 20.7856 33.0417 20.1424 33.0417 19.375C33.0417 18.6076 32.7821 17.9644 32.263 17.4453C31.7439 16.9262 31.1007 16.6667 30.3333 16.6667C29.566 16.6667 28.9227 16.9262 28.4036 17.4453C27.8845 17.9644 27.625 18.6076 27.625 19.375C27.625 20.1424 27.8845 20.7856 28.4036 21.3047C28.9227 21.8238 29.566 22.0833 30.3333 22.0833Z" fill="url(#paint0_linear_16_27)"/>
</g>
<defs>
<linearGradient id="paint0_linear_16_27" x1="20.8075" y1="7.76786" x2="26.1034" y2="51.2421" gradientUnits="userSpaceOnUse">
<stop stop-color="#E6D114"/>
<stop offset="0.663462" stop-color="#E68C18"/>
</linearGradient>
<clipPath id="clip0_16_27">
<rect width="39" height="52" fill="white"/>
</clipPath>
</defs>
</svg>
