<svg width="239" height="722" viewBox="0 0 239 722" fill="none" xmlns="http://www.w3.org/2000/svg">
<rect x="3.5" y="490.5" width="55" height="55" rx="27.5" stroke="#063258" stroke-opacity="0.5" stroke-width="7"/>
<g clip-path="url(#clip0_109_48)">
<path d="M24.4545 758.835C17.7295 758.835 11.9725 756.503 7.18352 751.838C2.39451 747.173 0 741.565 0 735.014V627.821C0 621.27 2.39451 615.662 7.18352 610.997C11.9725 606.332 17.7295 604 24.4545 604H244.545C251.27 604 257.027 606.332 261.816 610.997C266.605 615.662 269 621.27 269 627.821V735.014C269 741.565 266.605 747.173 261.816 751.838C257.027 756.503 251.27 758.835 244.545 758.835H24.4545ZM24.4545 627.821V735.014H244.545V627.821H24.4545ZM25.3716 800.522L24.4545 782.656L244.24 771.341L245.157 789.207L25.3716 800.522ZM24.4545 830V812.134H244.545V830H24.4545ZM113.102 717.149C128.183 717.149 142.702 714.568 156.662 709.407C170.621 704.246 182.798 696.306 193.191 685.586C194.414 693.924 198.897 700.276 206.641 704.643C214.385 709.01 222.944 711.194 232.318 711.194V651.642C222.944 651.642 214.385 653.875 206.641 658.341C198.897 662.808 194.414 669.309 193.191 677.845C182.39 667.522 170.112 659.582 156.356 654.024C142.601 648.466 128.183 645.686 113.102 645.686C97.003 645.686 81.5152 648.416 66.6386 653.875C51.7621 659.334 39.7386 668.515 30.5682 681.418C39.7386 694.321 51.7621 703.502 66.6386 708.96C81.5152 714.419 97.003 717.149 113.102 717.149Z" fill="#063258" fill-opacity="0.5"/>
</g>
<rect x="153.5" y="268.5" width="54" height="55" rx="27" stroke="#063258" stroke-opacity="0.5" stroke-width="7"/>
<rect x="12.5" y="3.5" width="55" height="55" rx="27.5" stroke="#063258" stroke-opacity="0.5" stroke-width="7"/>
<defs>
<clipPath id="clip0_109_48">
<rect width="208" height="85" fill="white" transform="translate(31 637)"/>
</clipPath>
</defs>
</svg>
